<?xml version="1.0" encoding="UTF-8"?>
<svg width="80px" height="80px" viewBox="0 0 80 80" version="1.1" xmlns="http://www.w3.org/2000/svg" xmlns:xlink="http://www.w3.org/1999/xlink">
    <title>is-ok</title>
    <g id="is-ok" stroke="none" stroke-width="1" fill="none" fill-rule="evenodd">
        <g id="okay" transform="translate(18.593750, 0.000000)" fill-rule="nonzero">
            <path d="M5.86242672,7.17590328 C3.27392578,7.17590328 1.17492672,9.27368156 1.17492672,11.8634033 C1.17492672,16.3446045 1.17370609,29.4000244 1.171875,36.4953612 L10.546875,20.2532959 L10.5499267,11.8634033 C10.5499267,9.27429203 8.45153812,7.17590328 5.86242672,7.17590328 Z" id="Path" fill="#F7A16E"></path>
            <path d="M19.1259766,1.52954094 C16.7340087,0.539550781 13.9923095,1.67480469 13.0017091,4.0667725 L2.88696281,28.4857178 L20.612793,14.8284913 L20.612793,10.1904297 L21.663208,7.65441891 C22.6538086,5.26245125 21.5179444,2.52075187 19.1259766,1.52954094 Z" id="Path" fill="#FFC98C"></path>
            <path d="M21.1010742,3.07312016 L21.1010742,3.07250969 C20.6121827,2.41027828 19.9426269,1.86767578 19.1259766,1.52954094 C18.5394287,1.28662109 17.9315186,1.17248531 17.3333741,1.17309319 L17.3333741,4.89868156 C17.3333741,6.14196781 16.84021,7.33337406 15.9606934,8.21289062 C13.7023925,10.4711914 10.789795,13.3825684 7.97851562,16.1932373 L2.8863525,28.4857178 L20.6121827,14.8284912 L20.6121827,10.1904297 L21.6625977,7.65441891 C22.2918702,6.13647469 22.078247,4.39636234 21.1010742,3.07312016 Z" id="Path" fill="#F7A16E"></path>
            <path d="M4.835205,25.9637452 C9.85290531,20.9478759 19.0856934,11.7175294 22.2546388,8.54858406 C24.0856934,6.71752937 27.0526123,6.71813969 28.883667,8.54858406 C30.7141113,10.3790283 30.7141113,13.347168 28.883667,15.1776123 C25.5004883,18.5607909 14.3371581,29.7216797 11.1114502,32.9455566 C18.1072998,25.949707 29.4122314,25.9222412 36.4416503,32.8643798 C38.2916259,34.6905517 38.3709717,37.7044678 36.5441894,39.553833 C34.7149658,41.4050294 31.7321778,41.4117431 29.8944092,39.574585 C26.5356445,36.2158203 21.0998534,36.2158203 17.7410889,39.574585 C14.3823242,42.9333497 14.3823242,48.3691406 17.7410889,51.7279053 C21.0998534,55.08667 26.5356445,55.0872803 29.8944092,51.7279053 C31.0833741,50.5395508 31.8908691,49.0466309 32.230835,47.4121094 C32.7575684,44.8773194 35.2392578,43.2495117 37.7740478,43.7762452 C40.3088378,44.3029784 41.9360352,46.784668 41.4099122,49.319458 C40.6970216,52.7478028 39.0075684,55.8728028 36.5234375,58.3569336 C34.6258545,60.2545166 32.3791503,61.675415 29.9279784,62.5592041 C26.2420655,63.8885498 23.8177491,67.4285889 23.8177491,71.3470459 L23.8177491,78.828125 L1.171875,78.828125 L1.171875,34.8046875 C1.171875,31.4886475 2.48962406,28.3081055 4.835205,25.9637452 Z" id="Path" fill="#FFC98C"></path>
            <g id="Group" transform="translate(9.687500, 7.031250)" fill="#F7A16E">
                <path d="M1.42395016,25.9143066 C3.13293453,27.6226806 5.75744625,28.0273437 7.89245609,26.8957519 C12.8857422,24.2486572 19.2425537,25.0024414 23.4606934,29.1687012 C23.5052491,29.2126466 23.4967041,29.2718506 23.4967041,29.2718506 C23.4985352,29.2614747 23.5107422,29.2401123 23.5217284,29.2285156 L26.8566894,32.522583 C28.6834717,30.6738281 28.6041259,27.6593017 26.7541503,25.8331298 C19.7247314,18.8909912 8.41979984,18.918457 1.42395016,25.9143066 Z" id="Path"></path>
                <path d="M28.0865478,36.7449952 L27.1325684,41.3348389 C26.6064453,43.8659669 25.3576659,46.1749267 23.5211181,48.0114747 C22.1197509,49.4128419 20.4803467,50.4583741 18.6499023,51.1187744 C13.1427002,53.1048584 9.44274906,58.4082031 9.44274906,64.3157959 L9.44274906,71.796875 L14.1302491,71.796875 L14.1302491,64.3157959 C14.1302491,60.3973389 16.553955,56.8579102 20.2398681,55.5285644 C22.6916503,54.644165 24.9383545,53.2232666 26.8359375,51.3256836 C29.3200684,48.8421631 31.0095216,45.7165528 31.7218017,42.288208 C32.2485352,39.7540283 30.6213378,37.2717284 28.0865478,36.7449952 L28.0865478,36.7449952 Z" id="Path"></path>
                <path d="M19.196167,1.51733406 C18.2806397,0.601806563 17.0812988,0.144653281 15.8813477,0.144653281 L15.8813477,2.89001469 C15.8813477,4.13330078 15.3875733,5.32592781 14.508667,6.20483406 C11.2780763,9.43481438 5.41625969,15.2954102 1.42517094,19.2852783 C-0.40588375,21.1157227 -0.40588375,24.0832519 1.42395016,25.9143066 C4.64965813,22.6904297 15.8129883,11.5295409 19.196167,8.14636234 C21.0266113,6.31591797 21.0266113,3.34777828 19.196167,1.51733406 Z" id="Path"></path>
            </g>
            <path d="M38.012085,42.6287842 C34.8413086,41.9702148 31.7419434,44.0020752 31.0833741,47.1740722 C30.7904053,48.5839844 30.0927734,49.8724366 29.0655517,50.8996581 C26.171875,53.793335 21.4636231,53.793335 18.5693359,50.8996581 C15.6756592,48.0053711 15.6756592,43.2971191 18.5693359,40.4034423 C21.4727783,37.5 26.1621094,37.4993897 29.0655517,40.4034423 C31.3635253,42.7008056 35.0909423,42.6922608 37.3779297,40.3778077 C39.6569825,38.0700684 39.5825195,34.3188477 37.2650147,32.0300294 C33.6566162,28.4667969 28.8830566,26.5063477 23.8183594,26.5063477 C23.7988281,26.5063477 23.7792969,26.5063477 23.7603759,26.5063477 C21.9372559,26.5118408 20.1538086,26.7706298 18.4490967,27.2668456 C22.7246094,22.9925538 27.6556397,18.0627441 29.7119141,16.0064697 C31.99646,13.7219238 31.99646,10.0042725 29.7119141,7.71972656 C27.4273681,5.43579094 23.7103272,5.43579094 21.4257812,7.71972656 C18.7524414,10.3930664 11.7626953,17.3809814 6.62963875,22.512207 L14.0838623,4.51538094 C14.6276856,3.19702156 15.9039306,2.34497063 17.3339844,2.34375 C18.5498047,2.34375 19.7845459,2.98706063 20.4370117,4.21081547 C20.7366944,4.77783203 21.4404297,5.00366219 22.0214844,4.69665531 C22.6037597,4.38781734 22.8051758,3.67309563 22.5073242,3.11218266 C21.5130616,1.23291016 19.5330811,8.8817842e-15 17.3339844,8.8817842e-15 L17.3309327,8.8817842e-15 C14.977417,8.8817842e-15 12.8344727,1.4105225 11.918335,3.61877438 L2.34497063,26.7315673 C2.34619141,20.9155273 2.34680172,14.2205811 2.34680172,11.862793 C2.34680172,9.61669922 4.43481437,7.94250484 6.62902828,8.43078609 C7.26074219,8.57177734 7.88696281,8.17321781 8.02734375,7.54150391 C8.16772469,6.90979 7.76977531,6.28356938 7.13806156,6.14318844 C3.47045906,5.32836906 0.00305175,8.13049313 0.00305175,11.862793 C0.00305175,16.4697266 0,77.265625 0,78.828125 C0,79.4750977 0.524292031,80 1.171875,80 C1.81945797,80 2.34375,79.4750977 2.34375,78.828125 L2.34375,36.4807128 C2.34375,36.3800048 2.34375,35.7659912 2.34375,34.7943116 C2.34680172,31.7669678 3.53698734,28.9178467 5.66284187,26.7926025 C10.6811523,21.7767334 19.9139405,12.5457764 23.0828858,9.37683109 C24.4537353,8.00659188 26.68396,8.00659188 28.0548095,9.37683109 C29.4250487,10.7476806 29.4250487,12.9785156 28.0548095,14.3487548 C24.6716309,17.7319336 13.5083008,28.8922119 10.2832031,32.1160889 C9.82543937,32.5738525 9.82482906,33.31604 10.2825928,33.7738037 C10.7397461,34.230957 11.4819336,34.2315673 11.9396972,33.7738037 C18.4484862,27.2650147 29.0704345,27.2314453 35.6176758,33.6975097 C37.0159912,35.0787353 37.0758056,37.3480225 35.7104492,38.7304687 C34.34021,40.1165772 32.1032716,40.1263428 30.7226562,38.7457275 C26.9152831,34.9383545 20.7196045,34.9383545 16.9116211,38.7457275 C13.1042481,42.5537109 13.1042481,48.7487794 16.9116211,52.5567627 C20.7269287,56.37146 26.9030762,56.3763428 30.7226562,52.5567627 C32.0733642,51.2060547 32.991333,49.5092773 33.3776856,47.6507569 C33.7731934,45.7482909 35.6323242,44.5281983 37.53479,44.9237061 C39.4329834,45.3179931 40.656128,47.1832275 40.2618408,49.0808106 C39.5959472,52.2851562 38.0163575,55.2062988 35.69458,57.5286866 C33.9245606,59.2987061 31.8505859,60.6201172 29.5294189,61.4569092 C25.4119873,62.9418945 22.6452637,66.9165039 22.6452637,71.3470459 L22.6452637,78.828125 C22.6452637,79.475708 23.1701659,80 23.8171387,80 C24.4647217,80 24.9890137,79.475708 24.9890137,78.828125 L24.9890137,71.3470459 C24.9890137,67.9010009 27.1331787,64.8132325 30.324707,63.6621094 C32.9724122,62.7069092 35.3363037,61.2011719 37.3516845,59.1857909 C39.9975586,56.539917 41.7974853,53.2104492 42.5567627,49.5581055 C43.2141112,46.3946533 41.1755372,43.2861328 38.012085,42.6287842 L38.012085,42.6287842 Z" id="Path" fill="#000000"></path>
        </g>
    </g>
</svg>