<?xml version="1.0" encoding="UTF-8"?>
<svg width="80px" height="80px" viewBox="0 0 80 80" version="1.1" xmlns="http://www.w3.org/2000/svg" xmlns:xlink="http://www.w3.org/1999/xlink">
    <title>lightsaber</title>
    <g id="lightsaber" stroke="none" stroke-width="1" fill="none" fill-rule="evenodd">
        <g fill-rule="nonzero">
            <polygon id="Path" fill="#C8C8C8" transform="translate(68.699727, 70.157678) rotate(-43.013893) translate(-68.699727, -70.157678) " points="65.4862691 60.5173044 71.9131849 60.5173044 71.9131849 79.7980519 65.4862691 79.7980519"></polygon>
            <path d="M64.4978571,60.939 L59.796,65.3232857 L4.08728571,5.48871429 C3.60257143,4.96928571 3.63085714,4.15542857 4.15028571,3.67071429 L6.97114286,1.04142857 C7.49057143,0.556714286 8.30442857,0.585 8.78785714,1.10442857 L64.4978571,60.939 Z" id="Path" fill="#AAD2FF"></path>
            <path d="M4.49228571,5.92328571 L6.97114286,3.61285714 C7.49057143,3.12814286 8.30442857,3.15642857 8.78785714,3.67585714 L63.216,62.1334286 L64.4978571,60.939 L8.78914286,1.10442857 C8.30442857,0.585 7.49057143,0.556714286 6.97114286,1.04142857 L4.15028571,3.67071429 C3.63085714,4.15542857 3.60257143,4.96928571 4.08728571,5.48871429 L4.49228571,5.92328571 Z" id="Path" fill="#BEE6FF"></path>
            <polygon id="Path" fill="#AAD2FF" transform="translate(74.396407, 76.268508) rotate(-43.013893) translate(-74.396407, -76.268508) " points="69.8975658 74.9831253 78.895248 74.9831253 78.895248 77.5538916 69.8975658 77.5538916"></polygon>
            <path d="M68.6918571,71.0922857 L66.8108571,72.846 L68.5645714,74.727 L70.4455714,72.9732857 C70.965,72.4885714 70.9932857,71.676 70.5085714,71.1565714 C70.0251429,70.6358571 69.2112857,70.6075714 68.6918571,71.0922857 L68.6918571,71.0922857 Z" id="Path" fill="#B4B4B4"></path>
            <path d="M65.1844286,67.3302857 L63.3034286,69.084 L65.0571429,70.965 L66.9381429,69.2112857 C67.4575714,68.7265714 67.4858571,67.914 67.0011429,67.3945714 C66.5177143,66.8751429 65.7038571,66.8468571 65.1844286,67.3302857 L65.1844286,67.3302857 Z" id="Path" fill="#B4B4B4"></path>
            <path d="M59.7972857,65.9661429 C59.7895714,65.9661429 59.7818571,65.9661429 59.7741429,65.9661429 C59.6031429,65.961 59.4424286,65.8864286 59.3254286,65.7617143 L3.61542857,5.92714286 C3.26571429,5.55042857 3.08057143,5.05928571 3.09985714,4.54371429 C3.11785714,4.02942857 3.33642857,3.55242857 3.71314286,3.20142857 L6.53271429,0.570857143 C7.30928571,-0.155571429 8.53457143,-0.110571429 9.25842857,0.666 L64.9684286,60.5018571 C65.2101429,60.7615714 65.196,61.1678571 64.9362857,61.4108571 L60.2357143,65.7951429 C60.1161429,65.9044286 59.9592857,65.9661429 59.7972857,65.9661429 L59.7972857,65.9661429 Z M7.848,1.33842857 C7.68985714,1.33842857 7.533,1.395 7.40828571,1.51071429 L4.58871429,4.14128571 C4.464,4.25828571 4.39071429,4.41771429 4.3838295,4.58871429 C4.37785714,4.761 4.43957143,4.92428571 4.55657143,5.05028571 L59.8294286,64.4142857 L63.5901429,60.9068571 L8.31857143,1.54285714 C8.19257143,1.40657143 8.02028571,1.33842857 7.848,1.33842857 Z" id="Shape" fill="#785AE6"></path>
            <polygon id="Path" fill="#DCDCDC" transform="translate(74.396407, 76.268508) rotate(-43.013893) translate(-74.396407, -76.268508) " points="69.8975658 74.9831253 78.895248 74.9831253 78.895248 77.5538916 69.8975658 77.5538916"></polygon>
            <polygon id="Path" fill="#C8C8C8" points="77.6674286 73.2432857 71.1192857 79.3504286 72.009 80.3044286 78.5918571 74.1664286"></polygon>
            <polygon id="Path" fill="#C8C8C8" transform="translate(10.672870, 70.208893) rotate(-136.986107) translate(-10.672870, -70.208893) " points="7.45941193 60.5685195 13.8863278 60.5685195 13.8863278 79.8492671 7.45941193 79.8492671"></polygon>
            <path d="M10.701,71.0922857 L12.582,72.846 L10.827,74.7257143 L8.946,72.972 C8.42657143,72.4872857 8.39828571,71.6747143 8.883,71.1552857 C9.36771429,70.6358571 10.1815714,70.6075714 10.701,71.0922857 L10.701,71.0922857 Z" id="Path" fill="#B4B4B4"></path>
            <path d="M14.2084286,67.3302857 L16.0894286,69.084 L14.3357143,70.965 L12.4547143,69.2112857 C11.9352857,68.7265714 11.907,67.914 12.3917143,67.3945714 C12.8751429,66.8751429 13.689,66.8468571 14.2084286,67.3302857 L14.2084286,67.3302857 Z" id="Path" fill="#B4B4B4"></path>
            <path d="M14.895,60.939 L19.5968571,65.3232857 L75.3068571,5.48871429 C75.7915714,4.96928571 75.7632857,4.15542857 75.2438571,3.672 L72.4217143,1.04142857 C71.9022857,0.556714286 71.0884286,0.585 70.605,1.10442857 L14.895,60.939 Z" id="Path" fill="#E678A0"></path>
            <path d="M70.6037143,3.67585714 C71.0884286,3.15642857 71.901,3.12814286 72.4204286,3.61285714 L74.8992857,5.92457143 L75.3042857,5.48871429 C75.789,4.96928571 75.7607143,4.15542857 75.2412857,3.672 L72.4217143,1.04142857 C71.9022857,0.556714286 71.0884286,0.585 70.605,1.10442857 L14.895,60.939 L16.1768571,62.1334286 L70.6037143,3.67585714 Z" id="Path" fill="#FA8CB4"></path>
            <path d="M19.5955714,65.9661429 C19.4335714,65.9661429 19.2767143,65.9044286 19.1571429,65.7938571 L14.4565714,61.4095714 C14.1968571,61.1678571 14.1827143,60.7615714 14.4244286,60.5005714 L70.1331429,0.666 C70.8608571,-0.111857143 72.0848571,-0.154285714 72.8601429,0.570857143 L75.6797143,3.20142857 C76.0564286,3.55242857 76.275,4.02942857 76.293,4.54371429 C76.3122857,5.058 76.1271429,5.55042857 75.7761429,5.92714286 L20.0661429,65.7604286 C19.9491429,65.8851429 19.7884286,65.9584286 19.6174286,65.9648571 C19.611,65.9661429 19.6032857,65.9661429 19.5955714,65.9661429 Z M15.8027143,60.9068571 L19.5634286,64.4142857 L74.835,5.05028571 C74.9532857,4.92428571 75.015,4.761 75.0090275,4.58871429 C75.0021429,4.41771429 74.9288571,4.25828571 74.8041429,4.14128571 L71.9845714,1.51071429 C71.7235714,1.269 71.3147143,1.28442857 71.0742857,1.54285714 L15.8027143,60.9068571 Z" id="Shape" fill="#785AE6"></path>
            <polygon id="Path" fill="#DCDCDC" transform="translate(17.252082, 63.153028) rotate(-136.986107) translate(-17.252082, -63.153028) " points="11.4678577 60.5822619 23.0363063 60.5822619 23.0363063 65.7237946 11.4678577 65.7237946"></polygon>
            <polygon id="Path" fill="#DCDCDC" transform="translate(4.971693, 76.322634) rotate(-136.986107) translate(-4.971693, -76.322634) " points="0.472851471 75.0372513 9.47053367 75.0372513 9.47053367 77.6080176 0.472851471 77.6080176"></polygon>
            <polygon id="Path" fill="#C8C8C8" points="1.75371429 73.1597143 2.56114286 72.2918571 2.55471429 72.2854286 0.801 74.1664286 7.38385714 80.3044286 8.32885714 79.2912857"></polygon>
            <path d="M7.38385714,80.9472857 C7.227,80.9472857 7.07014286,80.8907143 6.94542857,80.775 L0.362571429,74.637 C0.236571429,74.5212857 0.164571429,74.3592857 0.158142857,74.1895714 C0.153,74.0185714 0.214714286,73.8527143 0.331714286,73.728 L2.08542857,71.8482857 C2.32714286,71.5898571 2.73342857,71.5757143 2.99314286,71.8174286 L3.46371429,72.2558571 L12.231,62.8534286 L10.8205714,61.5381429 C10.6958571,61.4224286 10.6225714,61.2604286 10.6161429,61.0907143 C10.611,60.9197143 10.6727143,60.7538571 10.7897143,60.6304286 L14.2984286,56.8697143 C14.5401429,56.61 14.949,56.5958571 15.2061429,56.8375714 L23.6687143,64.7292857 C23.7934286,64.845 23.8667143,65.007 23.8731429,65.1767143 C23.8782857,65.3477143 23.8165714,65.5135714 23.6995714,65.637 L20.1908571,69.399 C19.9504286,69.66 19.5415714,69.6741429 19.2831429,69.4311429 L17.8714286,68.1158571 L9.10542857,77.5157143 L9.57471429,77.9541429 C9.83442857,78.1958571 9.84857143,78.6034286 9.60685714,78.8631429 L7.85442857,80.7428571 C7.72842857,80.8791429 7.55614286,80.9472857 7.38385714,80.9472857 L7.38385714,80.9472857 Z M1.71,74.1355714 L7.353,79.3967143 L8.22857143,78.4568571 L7.758,78.0171429 C7.49828571,77.7754286 7.48414286,77.3678571 7.72714286,77.1081429 L17.3725714,66.7645714 C17.4882857,66.6398571 17.649,66.5665714 17.82,66.5601429 C17.9897143,66.5421429 18.1555714,66.6154286 18.2802857,66.7324286 L19.692,68.0477143 L22.3225714,65.2268571 L14.7998571,58.212 L12.1692857,61.0328571 L13.5797143,62.3481429 C13.7044286,62.4638571 13.7777143,62.6258571 13.7841429,62.7955714 C13.7892857,62.9665714 13.7275714,63.1324286 13.6105714,63.2558571 L3.96514286,73.5994286 C3.72471429,73.8604286 3.31842857,73.8732857 3.05742857,73.6315714 L2.58685714,73.1931429 L1.71,74.1355714 Z" id="Shape" fill="#785AE6"></path>
            <polygon id="Path" fill="#DCDCDC" transform="translate(62.124796, 63.107972) rotate(-43.013893) translate(-62.124796, -63.107972) " points="56.340572 60.5372054 67.9090206 60.5372054 67.9090206 65.6787381 56.340572 65.6787381"></polygon>
            <g id="Group" transform="translate(4.660714, 56.571429)" fill="#785AE6">
                <path d="M67.3482857,24.3758571 C67.176,24.3758571 67.0037143,24.3077143 66.8777143,24.1714286 L65.1252857,22.2917143 C64.8835714,22.032 64.8977143,21.6257143 65.1574286,21.3827143 L65.6267143,20.9442857 L56.8594286,11.5418571 L55.4477143,12.8571429 C55.1905714,13.0988571 54.7791429,13.086 54.54,12.825 L51.0312857,9.063 C50.9142857,8.93828571 50.8525714,8.77242857 50.8577143,8.60271429 C50.8641429,8.433 50.9374286,8.271 51.0621429,8.15528571 L59.5247143,0.263571429 C59.7818571,0.0218571429 60.1932857,0.036 60.4324286,0.295714286 L63.9411429,4.05642857 C64.0581429,4.18114286 64.1198571,4.347 64.1147143,4.51671429 C64.1082857,4.68642857 64.035,4.84842857 63.9102857,4.96414286 L62.4998571,6.27942857 L71.2671429,15.6818571 L71.7377143,15.2434286 C71.9987143,15.0017143 72.405,15.0145714 72.6454286,15.2742857 L74.3991429,17.154 C74.5161429,17.2787143 74.5778571,17.4445714 74.5727143,17.6155714 C74.5662857,17.7852857 74.493,17.9472857 74.3682857,18.063 L72.63,19.6842857 L67.7841429,24.201 C67.662,24.3192857 67.5051429,24.3758571 67.3482857,24.3758571 L67.3482857,24.3758571 Z M66.5048571,21.8841429 L67.3804286,22.824 L73.0234286,17.5628571 L72.1465714,16.623 L71.676,17.0614286 C71.415,17.3031429 71.0074286,17.2902857 70.7682857,17.0292857 L61.1215714,6.68571429 C61.0045714,6.561 60.9428571,6.39514286 60.948,6.22542857 C60.9544286,6.05571429 61.0277143,5.89371429 61.1524286,5.778 L62.5628571,4.46271429 L59.9322857,1.64185714 L52.4095714,8.65671429 L55.0401429,11.4775714 L56.4518571,10.1622857 C56.5765714,10.0465714 56.7488571,9.97328571 56.9121429,9.99 C57.0831429,9.99514286 57.2438571,10.0697143 57.3595714,10.1944286 L67.005,20.538 C67.2467143,20.7977143 67.2338571,21.204 66.9741429,21.447 L66.5048571,21.8841429 Z" id="Shape"></path>
                <path d="M10.9864286,9.22757143 C10.8295714,9.22757143 10.6714286,9.171 10.548,9.05528571 L8.04214286,6.71785714 C7.78242857,6.47614286 7.76828571,6.06857143 8.01128571,5.80885714 C8.253,5.54914286 8.66185714,5.53628571 8.919,5.77671429 L11.4248571,8.11414286 C11.6845714,8.35585714 11.6987143,8.76342857 11.4557143,9.02314286 C11.3297143,9.15942857 11.1587143,9.22757143 10.9864286,9.22757143 Z" id="Path"></path>
                <path d="M3.53571429,21.618 C3.37885714,21.618 3.22071429,21.5614286 3.096,21.4444286 L0.322714286,18.8524286 C0.0642857143,18.6107143 0.0501428571,18.2031429 0.293142857,17.9434286 C0.536142857,17.685 0.942428571,17.6695714 1.20214286,17.9125714 L3.97542857,20.5045714 C4.23385714,20.7462857 4.248,21.1538571 4.005,21.4135714 C3.879,21.5498571 3.708,21.618 3.53571429,21.618 Z" id="Path"></path>
                <path d="M59.1801429,9.13885714 C59.0078571,9.13885714 58.8355714,9.07071429 58.7108571,8.93442857 C58.4691429,8.67471429 58.482,8.26842857 58.7417143,8.02542857 L61.1524286,5.77671429 C61.4108571,5.535 61.821,5.54785714 62.0601429,5.80885714 C62.3018571,6.06857143 62.289,6.47485714 62.0292857,6.71785714 L59.6185714,8.96657143 C59.4951429,9.081 59.337,9.13885714 59.1801429,9.13885714 Z" id="Path"></path>
                <path d="M66.5357143,21.618 C66.3634286,21.618 66.1911429,21.5498571 66.0664286,21.4135714 C65.8247143,21.1538571 65.8375714,20.7475714 66.0972857,20.5045714 L68.5452857,18.2211429 C68.8024286,17.9794286 69.2138571,17.9935714 69.453,18.2532857 C69.6947143,18.513 69.6818571,18.9192857 69.4221429,19.1622857 L66.9741429,21.4457143 C66.8507143,21.5614286 66.6925714,21.618 66.5357143,21.618 L66.5357143,21.618 Z" id="Path"></path>
            </g>
            <polygon id="Path" fill="#FFE885" points="6.26785714 25.0714286 8.08585714 28.3962857 11.4107143 30.2142857 8.08585714 32.0322857 6.26785714 35.3571429 4.44985714 32.0322857 1.125 30.2142857 4.44985714 28.3962857"></polygon>
            <polygon id="Path" fill="#FFFA96" points="4.44985714 29.682 6.26785714 27.6428571 8.08585714 29.682 11.4107143 30.2142857 8.08585714 28.3962857 6.26785714 25.0714286 4.44985714 28.3962857 1.125 30.2142857"></polygon>
            <path d="M6.26785714,36 C6.03257143,36 5.81657143,35.8714286 5.70471429,35.6657143 L3.97671429,32.5067143 L0.816428571,30.7774286 C0.610714286,30.6655714 0.482142857,30.4495714 0.482142857,30.2142857 C0.482142857,29.979 0.610714286,29.763 0.816428571,29.6511429 L3.97671429,27.9231429 L5.70471429,24.7641429 C5.931,24.3514286 6.606,24.3514286 6.83228571,24.7641429 L8.56028571,27.9231429 L11.7205714,29.6511429 C11.925,29.763 12.0535714,29.979 12.0535714,30.2142857 C12.0535714,30.4495714 11.925,30.6655714 11.7192857,30.7774286 L8.559,32.5054286 L6.831,35.6657143 C6.71914286,35.8714286 6.50314286,36 6.26785714,36 L6.26785714,36 Z M2.46471429,30.2142857 L4.75842857,31.4691429 C4.86642857,31.5282857 4.95385714,31.617 5.013,31.725 L6.26785714,34.0174286 L7.52271429,31.7237143 C7.58185714,31.6157143 7.66928571,31.527 7.77728571,31.4678571 L10.071,30.2142857 L7.77728571,28.9594286 C7.66928571,28.9002857 7.58185714,28.8115714 7.52271429,28.7035714 L6.26785714,26.4111429 L5.013,28.7048571 C4.95385714,28.8128571 4.86642857,28.9015714 4.75842857,28.9607143 L2.46471429,30.2142857 Z" id="Shape" fill="#785AE6"></path>
            <polygon id="Path" fill="#FFE885" points="48.6964286 1.92857143 50.5144286 5.25342857 53.8392857 7.07142857 50.5144286 8.88942857 48.6964286 12.2142857 46.8784286 8.88942857 43.5535714 7.07142857 46.8784286 5.25342857"></polygon>
            <polygon id="Path" fill="#FFFA96" points="46.8784286 6.53914286 48.6964286 4.5 50.5144286 6.53914286 53.8392857 7.07142857 50.5144286 5.25342857 48.6964286 1.92857143 46.8784286 5.25342857 43.5535714 7.07142857"></polygon>
            <path d="M48.6964286,12.8571429 C48.4611429,12.8571429 48.2451429,12.7285714 48.1332857,12.5228571 L46.4052857,9.36385714 L43.245,7.63457143 C43.0392857,7.52271429 42.9107143,7.30671429 42.9107143,7.07142857 C42.9107143,6.83614286 43.0392857,6.62014286 43.245,6.50828571 L46.4052857,4.78028571 L48.1332857,1.62128571 C48.3595714,1.20857143 49.0345714,1.20857143 49.2608571,1.62128571 L50.9888571,4.78028571 L54.1491429,6.50828571 C54.3535714,6.62014286 54.4821429,6.83614286 54.4821429,7.07142857 C54.4821429,7.30671429 54.3535714,7.52271429 54.1478571,7.63457143 L50.9875714,9.36257143 L49.2595714,12.5215714 C49.1477143,12.7285714 48.9317143,12.8571429 48.6964286,12.8571429 Z M44.8932857,7.07142857 L47.187,8.32628571 C47.295,8.38542857 47.3824286,8.47414286 47.4415714,8.58214286 L48.6964286,10.8745714 L49.9512857,8.58085714 C50.0104286,8.47285714 50.0978571,8.38414286 50.2058571,8.325 L52.4995714,7.07142857 L50.2058571,5.81657143 C50.0978571,5.75742857 50.0104286,5.66871429 49.9512857,5.56071429 L48.6964286,3.26828571 L47.4415714,5.562 C47.3824286,5.67 47.295,5.75871429 47.187,5.81785714 L44.8932857,7.07142857 Z" id="Shape" fill="#785AE6"></path>
            <polygon id="Path" fill="#FFE885" points="73.125 32.7857143 74.943 36.1105714 78.2678571 37.9285714 74.943 39.7465714 73.125 43.0714286 71.307 39.7465714 67.9821429 37.9285714 71.307 36.1105714"></polygon>
            <polygon id="Path" fill="#FFFA96" points="71.307 37.3962857 73.125 35.3571429 74.943 37.3962857 78.2678571 37.9285714 74.943 36.1105714 73.125 32.7857143 71.307 36.1105714 67.9821429 37.9285714"></polygon>
            <path d="M73.125,43.7142857 C72.8897143,43.7142857 72.6737143,43.5857143 72.5618571,43.38 L70.8338571,40.221 L67.6735714,38.493 C67.4678571,38.3798571 67.3392857,38.1638571 67.3392857,37.9285714 C67.3392857,37.6932857 67.4678571,37.4772857 67.6735714,37.3654286 L70.8338571,35.6374286 L72.5618571,32.4784286 C72.7881429,32.0657143 73.4631429,32.0657143 73.6894286,32.4784286 L75.4174286,35.6374286 L78.5777143,37.3654286 C78.7821429,37.4772857 78.9107143,37.6932857 78.9107143,37.9285714 C78.9107143,38.1638571 78.7821429,38.3798571 78.5764286,38.4917143 L75.4161429,40.2197143 L73.6881429,43.3787143 C73.5762857,43.5857143 73.3602857,43.7142857 73.125,43.7142857 Z M69.3218571,37.9285714 L71.6155714,39.1834286 C71.7235714,39.2425714 71.811,39.3312857 71.8701429,39.4392857 L73.125,41.7317143 L74.3798571,39.438 C74.439,39.33 74.5264286,39.2412857 74.6344286,39.1821429 L76.9281429,37.9285714 L74.6344286,36.6737143 C74.5264286,36.6145714 74.439,36.5258571 74.3798571,36.4178571 L73.125,34.1254286 L71.8701429,36.4191429 C71.811,36.5271429 71.7235714,36.6158571 71.6155714,36.675 L69.3218571,37.9285714 Z" id="Shape" fill="#785AE6"></path>
        </g>
    </g>
</svg>