<?xml version="1.0" encoding="UTF-8"?>
<svg width="80px" height="80px" viewBox="0 0 80 80" version="1.1" xmlns="http://www.w3.org/2000/svg" xmlns:xlink="http://www.w3.org/1999/xlink">
    <title>logo-alliance</title>
    <defs>
        <filter id="filter-1">
            <feColorMatrix in="SourceGraphic" type="matrix" values="0 0 0 0 0.000000 0 0 0 0 0.000000 0 0 0 0 0.000000 0 0 0 1.000000 0"></feColorMatrix>
        </filter>
    </defs>
    <g id="logo-alliance" stroke="none" stroke-width="1" fill="none" fill-rule="evenodd">
        <g filter="url(#filter-1)" id="Rebel_Alliance_logo">
            <g transform="translate(0.500000, 0.000000)">
                <path d="M0.114675768,39.0405461 C0.596587031,26.2643003 7.07139932,14.4805461 18.9078498,6.6937884 C18.9427986,6.7068942 19.2494198,6.59522184 19.1093515,6.8603413 C18.1717406,7.72969283 1.31494881,27.6423208 16.8311263,43.36 C16.8311263,43.36 24.9834812,51.1972696 31.3051195,43.7608191 C31.3051195,43.7608191 37.5432082,35.6851877 31.2262116,23.4432765 C31.2262116,23.4432765 29.6273038,19.4460068 23.8664846,16.9665529 L28.5059386,11.8476451 C28.5059386,11.8476451 32.4264846,13.5298294 35.4623891,18.0922867 C35.4623891,18.0922867 35.6243003,13.2887372 31.9445734,8.17010239 L39.1377474,0.00901023891 L46.2585666,8.09337884 C46.2585666,8.09337884 42.9840273,12.7325597 42.7429352,18.1690102 C42.7429352,18.1690102 44.9793857,14.4892833 49.7807509,11.8479181 L54.3366553,16.9668259 C54.3366553,16.9668259 49.9557679,18.4103754 47.0208874,23.3911263 C44.4974744,28.0060068 42.5548123,37.8757679 47.134471,43.9298294 C47.134471,43.9298294 52.2599317,51.1975427 61.2756314,43.5008874 C61.2756314,43.5008874 77.8522867,28.6479181 59.5756997,7.1737884 C59.5756997,7.1737884 58.5769283,6.29105802 59.6982935,6.77078498 C67.7763823,12.6520137 77.4490102,20.4079181 78.4477816,39.7638225 C78.0535154,63.2357679 62.3352901,79.9915358 39.3832082,79.9915358 C16.9103072,79.9915358 -0.559726962,61.2376792 0.114675768,39.0405461" id="Path" fill="#000000" fill-rule="nonzero"></path>
            </g>
        </g>
    </g>
</svg>