<?xml version="1.0" encoding="UTF-8"?>
<svg width="80px" height="80px" viewBox="0 0 80 80" version="1.1" xmlns="http://www.w3.org/2000/svg" xmlns:xlink="http://www.w3.org/1999/xlink">
    <title>lose</title>
    <g id="lose" stroke="none" stroke-width="1" fill="none" fill-rule="evenodd">
        <g id="stroke" transform="translate(12.828431, 8.000000)">
            <path d="M30.5403358,43.6520044 L37.8580564,50.4459113 C37.3132721,50.6129995 36.8005074,50.9108721 36.3702721,51.3411074 C35.191973,52.5195191 35.0014338,54.316676 35.7973015,55.6961123 L18.3727721,55.6961123 C19.1687525,54.316676 18.9782132,52.5195191 17.7998015,51.3409946 C17.3695662,50.9107593 16.8566887,50.6129995 16.3120172,50.4459113 L23.6297377,43.6520044 C24.2503995,44.3141564 25.0682525,44.4229554 25.5351299,44.4229554 L28.6350564,44.4229554 C29.1019338,44.4229554 29.919674,44.3141564 30.5403358,43.6520044 Z M35.4232358,28.2007397 C38.1048779,28.2007397 38.787324,29.8531319 39.3918632,31.3167887 C39.8733975,32.4827985 39.5880397,32.9355828 39.4942358,33.0844064 C38.9558779,33.9384505 37.0729221,34.1543574 35.1184858,34.2604505 C34.7671721,34.2795044 34.4379564,34.2890877 34.1400838,34.2890877 C32.7113779,34.2890877 31.8182113,34.0732936 31.3293485,33.6103623 C30.8731819,33.178323 30.7035002,32.5451466 30.7035002,31.2741711 L30.7035002,31.2358377 C30.7033877,30.2804358 30.7392407,29.665524 31.2358828,29.183426 C31.8326426,28.6043672 33.0696819,28.2940926 35.1290838,28.2070534 C35.2298779,28.2028819 35.3277407,28.2007397 35.4232358,28.2007397 Z M19.0410686,28.2070985 C21.1004706,28.2941377 22.3375098,28.6044123 22.9342696,29.1834711 C23.4310245,29.6655691 23.4667647,30.2805936 23.4666522,31.2363338 L23.4666522,31.2742162 C23.4666522,32.5450789 23.2970833,33.1782554 22.8406912,33.6104074 C22.3519412,34.0733387 21.4587745,34.2890201 20.0300686,34.2890201 C19.7320833,34.2890201 19.4029804,34.2794368 19.0518922,34.2603828 C17.0972304,34.1542897 15.2142745,33.9384956 14.6759167,33.0843387 C14.5821127,32.9355152 14.2967549,32.4828436 14.7781765,31.3168338 C15.4043627,29.800976 16.1139804,28.0826279 19.0410686,28.2070985 Z M27.0851495,1.80395539 C27.6071593,1.80418088 28.0913995,2.03959265 28.4144142,2.45009755 L28.5015662,2.56092598 C28.7349485,2.85767108 28.8634779,3.22916618 28.8634779,3.60674951 L28.8634779,24.2515044 L25.3065956,24.2515044 L25.3065956,3.60674951 C25.3065956,3.22916618 25.435125,2.85778382 25.6687328,2.56081324 L25.7558848,2.4499848 C26.0785613,2.03959265 26.563027,1.80418088 27.0851495,1.80395539 Z" id="Combined-Shape" fill="#C9CBCF"></path>
            <path d="M39.4942358,33.0844064 C38.9558779,33.9384505 37.0729221,34.1543574 35.1184858,34.2604505 C34.7671721,34.2795044 34.4379564,34.2890877 34.1400838,34.2890877 C32.7113779,34.2890877 31.8182113,34.0732936 31.3293485,33.6103623 C30.8731819,33.178323 30.7035002,32.5451466 30.7035002,31.2741711 L30.7035002,31.2358377 C30.7033877,30.2804358 30.7392407,29.665524 31.2358828,29.183426 C31.8326426,28.6043672 33.0696819,28.2940926 35.1290838,28.2070534 L35.1291966,28.2070534 C35.2298779,28.2028819 35.3277407,28.2007397 35.4232358,28.2007397 C38.1048779,28.2007397 38.787324,29.8531319 39.3918632,31.3167887 C39.8733975,32.4827985 39.5880397,32.9355828 39.4942358,33.0844064 M35.0528681,26.404823 C32.4555593,26.5146368 30.9383485,26.9584015 29.9795642,27.8888868 C28.8992407,28.9373034 28.8995789,30.2660044 28.8995789,31.2362887 L28.8995789,31.2741711 C28.8995789,32.5828034 29.0437799,33.9302201 30.088927,34.9201221 C30.9453387,35.731323 32.1946672,36.0930093 34.1400838,36.0930093 C34.4703142,36.0930093 34.8323387,36.0824113 35.216123,36.0616662 C38.1143485,35.9043868 40.0961819,35.5123721 41.0202407,34.0463475 C41.6017799,33.1238672 41.6149711,31.9737544 41.0592505,30.6282544 C40.4239319,29.090073 39.2375152,26.2252201 35.0528681,26.404823" id="Fill-1" fill="#555E6B"></path>
            <path d="M31.5941529,48.422148 C31.0960451,48.422148 30.6921922,48.826001 30.6921922,49.3241088 L30.6921922,53.1574422 C30.6921922,53.65555 31.0960451,54.0594029 31.5941529,54.0594029 C32.0922608,54.0594029 32.4961137,53.65555 32.4961137,53.1574422 L32.4961137,49.3241088 C32.4961137,48.826001 32.0922608,48.422148 31.5941529,48.422148" id="Fill-3" fill="#555E6B"></path>
            <path d="M27.084349,46.1672461 C26.5862412,46.1672461 26.1823882,46.571099 26.1823882,47.0692069 L26.1823882,53.1574422 C26.1823882,53.65555 26.5862412,54.0594029 27.084349,54.0594029 C27.5824569,54.0594029 27.9863098,53.65555 27.9863098,53.1574422 L27.9863098,47.0692069 C27.9863098,46.571099 27.5824569,46.1672461 27.084349,46.1672461" id="Fill-5" fill="#555E6B"></path>
            <path d="M23.4666522,31.2742162 C23.4666522,32.5450789 23.2970833,33.1782554 22.8406912,33.6104074 C22.3519412,34.0733387 21.4587745,34.2890201 20.0300686,34.2890201 C19.7320833,34.2890201 19.4029804,34.2794368 19.0518922,34.2603828 C17.0972304,34.1542897 15.2142745,33.9384956 14.6759167,33.0843387 C14.5821127,32.9355152 14.2967549,32.4828436 14.7781765,31.3168338 C15.4043627,29.800976 16.1139804,28.0826279 19.0410686,28.2070985 C21.1004706,28.2941377 22.3375098,28.6044123 22.9342696,29.1834711 C23.4310245,29.6655691 23.4667647,30.2805936 23.4666522,31.2363338 L23.4666522,31.2742162 Z M19.1173971,26.4048681 C14.9286912,26.2260544 13.7462206,29.0901181 13.110902,30.6282995 C12.5551814,31.9737995 12.5682598,33.1237995 13.1499118,34.0462799 C14.0739706,35.5124172 16.0559167,35.9043191 18.9542549,36.0617113 C19.3378137,36.0823436 19.6997255,36.0929417 20.0300686,36.0929417 C21.9753725,36.0929417 23.2248137,35.7312554 24.0812255,34.9201672 C25.1264853,33.9301525 25.2705758,32.5827358 25.2705758,31.2742162 L25.2705758,31.2363338 C25.2705758,30.2661623 25.270799,28.9373485 24.1905882,27.8889319 C23.2318039,26.9584466 21.7144804,26.5145691 19.1173971,26.4048681 L19.1173971,26.4048681 Z" id="Fill-7" fill="#555E6B"></path>
            <path d="M22.5760333,48.422148 C22.0779255,48.422148 21.6740725,48.826001 21.6740725,49.3241088 L21.6740725,53.1574422 C21.6740725,53.65555 22.0779255,54.0594029 22.5760333,54.0594029 C23.0741412,54.0594029 23.4779941,53.65555 23.4779941,53.1574422 L23.4779941,49.3241088 C23.4779941,48.826001 23.0741412,48.422148 22.5760333,48.422148" id="Fill-9" fill="#555E6B"></path>
            <path d="M42.5626838,53.914176 C42.7921201,52.6415093 43.7982574,47.3952544 45.4916887,43.2797201 C46.6239877,40.5280632 47.8783897,38.3094652 48.7614093,36.8919211 C50.2769289,41.361024 51.7323554,45.996877 52.2451201,47.6438574 L42.5626838,53.914176 Z M41.2740074,51.1556417 L31.3061005,41.9014113 C31.3486054,41.6222544 31.3730711,41.3143475 31.3730711,40.9708132 C31.3730711,38.1574848 29.6179681,36.1925632 27.1048799,36.1925632 L27.0857132,36.1925632 L27.084473,36.1925632 L27.0653064,36.1925632 C24.5522181,36.1925632 22.7970025,38.1574848 22.7970025,40.9708132 C22.7970025,41.3143475 22.8214681,41.6222544 22.863973,41.9014113 L12.8962917,51.1556417 C12.3934485,48.8559799 11.542223,45.4984309 10.346674,42.5931025 C8.788875,38.8072348 7.04459559,36.0319015 6.1531201,34.7266515 C6.99645343,32.3102985 7.8136299,30.1061319 8.45097794,28.6635583 C9.254625,26.8443034 10.3553554,24.352975 15.1798309,24.352975 C17.4734044,24.352975 19.3406887,24.8592005 20.9881201,25.3058966 C22.409723,25.6913721 23.7525172,26.055426 25.1578848,26.055426 L29.0121887,26.055426 C30.4175564,26.055426 31.7603505,25.6913721 33.1820662,25.3058966 C34.8293848,24.8592005 36.6967819,24.352975 38.9902426,24.352975 C43.8147181,24.352975 44.9154485,26.8443034 45.7192083,28.6635583 C46.3565564,30.1062446 47.1737328,32.3104113 48.0171789,34.7267642 C47.1254779,36.0323525 45.3808603,38.8085877 43.8235123,42.5933279 C42.6279632,45.4985436 41.7767377,48.8559799 41.2740074,51.1556417 L41.2740074,51.1556417 Z M40.1972917,55.1675632 C40.0218603,55.3428819 39.8172279,55.4758083 39.5906103,55.5661172 C39.3236299,55.6330877 39.0504485,55.6744652 38.7736593,55.6885583 C38.3481593,55.6538328 37.9490417,55.4708475 37.6459828,55.1677887 C36.9425662,54.4643721 36.9425662,53.3198966 37.6458701,52.6165926 C38.3383505,51.9243377 39.4574583,51.9149799 40.1630172,52.5858132 L40.2018015,52.6217789 C40.9000319,53.3255338 40.8986789,54.4660632 40.1972917,55.1675632 L40.1972917,55.1675632 Z M24.600924,40.9708132 C24.600924,39.5987054 25.2463897,37.9964848 27.0653064,37.9964848 L27.084473,37.9964848 L27.0857132,37.9964848 L27.1048799,37.9964848 C28.9236838,37.9964848 29.5691495,39.5987054 29.5691495,40.9708132 C29.5691495,42.6190338 28.9614534,42.6190338 28.6350564,42.6190338 L27.0857132,42.6190338 L27.084473,42.6190338 L25.5351299,42.6190338 C25.2087328,42.6190338 24.600924,42.6190338 24.600924,40.9708132 L24.600924,40.9708132 Z M35.7973015,55.6961123 L27.0843603,55.6961123 L18.3727721,55.6961123 C19.1687525,54.316676 18.9782132,52.5195191 17.7998015,51.3409946 C17.3695662,50.9107593 16.8566887,50.6129995 16.3120172,50.4459113 L23.6297377,43.6520044 C24.2503995,44.3141564 25.0682525,44.4229554 25.5351299,44.4229554 L27.084473,44.4229554 L27.0857132,44.4229554 L28.6350564,44.4229554 C29.1019338,44.4229554 29.919674,44.3141564 30.5403358,43.6520044 L37.8580564,50.4459113 C37.3132721,50.6129995 36.8005074,50.9108721 36.3702721,51.3411074 C35.191973,52.5195191 35.0014338,54.316676 35.7973015,55.6961123 L35.7973015,55.6961123 Z M16.5242034,55.1677887 C16.2211446,55.4708475 15.822027,55.6538328 15.3964142,55.6885583 C15.119625,55.6744652 14.8464436,55.6330877 14.5796887,55.5661172 C14.3528456,55.4758083 14.1484387,55.3429946 13.9731201,55.1677887 C13.2713946,54.4659505 13.2701544,53.3251956 13.968723,52.6214407 L14.0049142,52.5878426 C14.710473,51.9148672 15.8310466,51.9235485 16.5242034,52.6164799 C17.2275074,53.3198966 17.2275074,54.4643721 16.5242034,55.1677887 L16.5242034,55.1677887 Z M1.92517892,47.6438574 C2.43805637,45.9962005 3.89348284,41.360573 5.40866422,36.8918083 C6.29168382,38.3090142 7.54597304,40.527274 8.67849755,43.2794946 C10.3720417,47.3953672 11.3782917,52.642073 11.6075025,53.9142887 L1.92517892,47.6438574 Z M9.41652696,22.0661662 C11.8346838,18.7543917 17.4851299,18.711323 23.502674,18.7153819 L23.502674,24.0702103 C22.8566446,23.9430338 22.1849093,23.7614015 21.4601838,23.564774 C19.7040662,23.0886515 17.7136642,22.5490534 15.1798309,22.5490534 C11.2504387,22.5490534 9.23072304,24.0518328 8.07113971,25.6176368 C8.58503186,23.8784309 9.05980147,22.5546907 9.41652696,22.0661662 L9.41652696,22.0661662 Z M13.1883015,8.45027892 C16.0955466,4.67816618 20.7839387,3.8127348 23.502674,3.64654853 L23.502674,16.9114603 C18.2027525,16.9083034 13.1660907,16.9417887 9.88757598,19.1562152 C10.088826,16.0947348 10.8093799,11.537127 13.1883015,8.45027892 L13.1883015,8.45027892 Z M25.3065956,3.60674951 C25.3065956,3.22916618 25.435125,2.85778382 25.6687328,2.56081324 L25.7558848,2.4499848 C26.0785613,2.03959265 26.563027,1.80418088 27.0851495,1.80395539 C27.6071593,1.80418088 28.0913995,2.03959265 28.4144142,2.45009755 L28.5015662,2.56092598 C28.7349485,2.85767108 28.8634779,3.22916618 28.8634779,3.60674951 L28.8634779,24.2515044 L25.3065956,24.2515044 L25.3065956,3.60674951 Z M30.6673995,18.7153191 C36.682576,18.713127 42.334375,18.752926 44.7536593,22.0661662 C45.1102721,22.5545779 45.5850417,23.8782054 46.0988211,25.6174113 C44.9392377,24.0516074 42.9195221,22.5490534 38.9902426,22.5490534 C36.4565221,22.5490534 34.4661201,23.0886515 32.7098897,23.564774 C31.985277,23.7614015 31.3135417,23.9430338 30.6673995,24.070323 L30.6673995,18.7153191 Z M30.6673995,3.64654853 C33.3862475,3.8127348 38.0746397,4.67816618 40.9817721,8.45027892 C43.3606936,11.537127 44.0812475,16.0947348 44.2826103,19.1562152 C41.0030809,16.941225 35.9650662,16.9098819 30.6673995,16.9114603 L30.6673995,3.64654853 Z M54.1202966,47.5996613 C53.8530907,46.7365975 52.3694779,41.9628574 50.7471887,37.1365779 C50.4125613,35.5182348 47.8325025,23.2237201 46.2104387,21.0024162 C46.1928505,20.9782887 46.1737966,20.9561907 46.1559828,20.9324015 C46.1212574,17.9896417 45.6482917,11.5502054 42.4105907,7.34909755 C38.839277,2.71504853 33.0581593,1.910725 30.1708701,1.8174848 C30.0944289,1.68906814 30.0123505,1.56380833 29.9193358,1.44565147 L29.8322966,1.33493578 C29.1655221,0.486979902 28.1644583,3.38235294e-05 27.085826,3.38235294e-05 L27.085826,3.38235294e-05 L27.0851495,3.38235294e-05 L27.0843603,3.38235294e-05 L27.0843603,3.38235294e-05 C26.0056152,3.38235294e-05 25.004777,0.486979902 24.3378897,1.33493578 L24.2507377,1.44576422 C24.1579485,1.56358284 24.0758701,1.68861716 23.9996544,1.81692108 C22.4037475,1.8659652 20.2253995,2.11682304 17.9776005,2.93625441 C15.377924,3.88398971 13.285826,5.3687299 11.7595956,7.34909755 C8.52178186,11.5502054 8.04881618,17.9896417 8.01409069,20.9324015 C7.99638971,20.9561907 7.97722304,20.9782887 7.9596348,21.0024162 C6.33779657,23.2237201 3.75773775,35.5172201 3.42311029,37.1363525 C1.80059559,41.9626319 0.316982843,46.7365975 0.0497769608,47.5999995 C-0.0984828431,48.0799554 0.0923946078,48.6059113 0.51417402,48.8793181 L12.3901789,56.5703377 L12.4016789,56.5775534 C13.364973,57.1810779 14.4750613,57.5000338 15.6118701,57.5000338 L38.5582034,57.5000338 C39.6950123,57.5000338 40.8052132,57.1810779 41.7685074,56.5775534 L53.6562377,48.8792054 C54.0777917,48.6059113 54.2686691,48.0799554 54.1202966,47.5996613 L54.1202966,47.5996613 Z" id="Fill-11" fill="#555E6B"></path>
        </g>
    </g>
</svg>