<?xml version="1.0" encoding="UTF-8"?>
<svg width="80px" height="80px" viewBox="0 0 80 80" version="1.1" xmlns="http://www.w3.org/2000/svg" xmlns:xlink="http://www.w3.org/1999/xlink">
    <title>turn</title>
    <g id="turn" stroke="none" stroke-width="1" fill="none" fill-rule="evenodd">
        <path d="M73.919749,37.1325523 C75.4973222,37.1325523 76.7758847,38.4113808 76.7758847,39.988954 C76.7943933,49.6351464 73.0512971,58.9086192 66.3416736,65.8389958 C52.1046862,80.5446025 28.6419247,80.9243515 13.936318,66.6871967 L13.936318,66.6871967 L13.936318,77.1215063 C13.936318,78.6990795 12.6574895,79.9779079 11.0799163,79.9779079 C9.5023431,79.9779079 8.2235006,78.6990795 8.2235006,77.1215063 L8.2235006,77.1215063 L8.2235006,59.983431 C8.21966527,58.7504603 9.0074477,57.6538912 10.1773222,57.2642678 L10.1773222,57.2642678 L27.3153975,51.5516318 C28.8139749,51.0530544 30.432887,51.8639331 30.9314644,53.3625105 C31.4300418,54.8610879 30.6191632,56.48 29.1205858,56.9785774 L29.1205858,56.9785774 L16.4670293,61.1973222 C22.4174895,67.6979079 30.8243515,71.4008368 39.6372385,71.4025105 C56.9900418,71.4060251 71.0598326,57.34159 71.0633473,39.988954 C71.0633473,38.4113808 72.3421757,37.1325523 73.919749,37.1325523 Z M68.207113,0 C69.7846862,0 71.0636961,1.27882845 71.0636961,2.85623431 L71.0636961,2.85623431 L71.0636961,19.9943096 C71.0675314,21.2272803 70.279749,22.3238494 69.1098745,22.7134728 L69.1098745,22.7134728 L51.9717992,28.4261088 C50.4732218,28.9246862 48.8543096,28.1138075 48.3557322,26.6152301 C47.8571548,25.1166527 48.6680335,23.4977406 50.1666109,22.9991632 L50.1666109,22.9991632 L62.8201674,18.7804184 C56.8697071,12.2798326 48.4628452,8.57690377 39.6499582,8.57523013 C22.2971548,8.57171548 8.22736402,22.6361506 8.22384937,39.9887866 C8.22384937,41.5663598 6.94518828,42.8451883 5.36761506,42.8451883 C3.79004184,42.8451883 2.51114457,41.5663598 2.51114457,39.9887866 C2.49263598,30.3425941 6.23573222,21.0691213 12.9453556,14.1387448 C27.1825105,-0.566694561 50.6451046,-0.946610879 65.3507113,13.2905439 L65.3507113,13.2905439 L65.3507113,2.85640167 C65.3507113,1.27882845 66.6295397,0 68.207113,0 Z" id="Combined-Shape" fill="#000000" fill-rule="nonzero"></path>
    </g>
</svg>