<?xml version="1.0" encoding="UTF-8"?>
<svg width="80px" height="80px" viewBox="0 0 80 80" version="1.1" xmlns="http://www.w3.org/2000/svg" xmlns:xlink="http://www.w3.org/1999/xlink">
    <title>user</title>
    <g id="user" stroke="none" stroke-width="1" fill="none" fill-rule="evenodd">
        <g id="usuario-(1)" transform="translate(0.000000, -0.500000)" fill="#000000" fill-rule="nonzero">
            <path d="M69.6199228,12.439334 C61.9905344,4.47579958 51.4343236,-0.0184321503 40.40581,0.00179170478 C18.1184656,-0.0262108559 0.0280709812,18.0185261 -3.19959538e-05,40.3060397 C-0.0138663883,51.3264363 4.47985804,61.8730084 12.4374739,69.4969854 C12.4606409,69.5199833 12.4692651,69.5546493 12.492263,69.5749415 C12.7259624,69.8000167 12.9799541,69.990595 13.2166973,70.2070459 C13.8660501,70.7841921 14.5154029,71.3816305 15.1994217,71.9386534 C15.5658664,72.2273111 15.9468539,72.5157996 16.3220919,72.7812902 C16.9685699,73.2632317 17.615048,73.7451733 18.2902735,74.1897432 C18.7492171,74.4784008 19.2225344,74.7668894 19.6928079,75.055547 C20.316119,75.430785 20.9367244,75.8087286 21.5803278,76.1521754 C22.1258518,76.440833 22.6827056,76.6889061 23.2368539,76.9515219 C23.8429165,77.2401795 24.4403549,77.5286681 25.0607912,77.7884092 C25.6812276,78.0481503 26.3047077,78.2502276 26.9337683,78.4753027 C27.5628288,78.7003779 28.1054781,78.9082046 28.708666,79.0928643 C29.38981,79.2978163 30.0882025,79.4564342 30.7808455,79.6267203 C31.3579916,79.7680898 31.9178894,79.9297516 32.512453,80.0452484 C33.3089248,80.2040355 34.1170647,80.3049896 34.9252046,80.414737 C35.4245637,80.4840689 35.9122547,80.5821482 36.4171942,80.6311879 C37.7390668,80.7610585 39.0722693,80.8332651 40.4171399,80.8332651 C41.7620104,80.8332651 43.095382,80.7610585 44.4170856,80.6311879 C44.9221942,80.5821482 45.4098852,80.4840689 45.9090752,80.414737 C46.717215,80.3049896 47.5251858,80.2040355 48.3218267,80.0452484 C48.8989729,79.9297516 49.4762881,79.7565908 50.0534342,79.6267203 C50.7460772,79.4564342 51.4444697,79.2976472 52.1256138,79.0928643 C52.7288017,78.9082046 53.3116973,78.6831294 53.9005115,78.4753027 C54.4893257,78.267476 55.1588017,78.0424008 55.7734885,77.7884092 C56.3881754,77.5344175 56.9913633,77.2371357 57.5974259,76.9515219 C58.1515741,76.6889061 58.7085971,76.4406639 59.253952,76.1521754 C59.8975553,75.8087286 60.5179916,75.4306159 61.1414718,75.055547 C61.6119144,74.7668894 62.0852317,74.5042735 62.5440063,74.1897432 C63.2194008,73.7453424 63.8658789,73.2634008 64.5121879,72.7812902 C64.8874259,72.4926326 65.2682443,72.2328914 65.634858,71.9386534 C66.3188768,71.3902547 66.9682296,70.8073591 67.6175825,70.2070459 C67.8541566,69.990595 68.1081482,69.8001858 68.3420167,69.5749415 C68.3650146,69.5548184 68.3738079,69.5201524 68.3968058,69.4969854 C84.4909478,54.0785762 85.0383319,28.5329687 69.6199228,12.439334 Z M63.1333278,66.4752965 C62.608096,66.9371148 62.0654468,67.3757662 61.5172171,67.8000438 C61.1940626,68.048286 60.870739,68.2934843 60.5387912,68.5302276 C60.0164342,68.9083403 59.485453,69.2661608 58.9456785,69.6096075 C58.5531921,69.8607244 58.1520814,70.103048 57.7479269,70.3397912 C57.2399436,70.6284489 56.7233361,70.9169374 56.2009791,71.205595 C55.7391608,71.4421691 55.2687182,71.6645386 54.7955699,71.8838643 C54.3224217,72.10319 53.7998956,72.3368894 53.2890376,72.5418413 C52.7781795,72.7467933 52.2356994,72.9400772 51.7016743,73.1189875 C51.2139833,73.2863987 50.7262923,73.4595595 50.2326827,73.6066785 C49.6555365,73.7798392 49.0523486,73.9212088 48.4549102,74.0656221 C47.9873424,74.1752004 47.5256931,74.2993215 47.0523758,74.3918205 C46.368357,74.5245658 45.6699645,74.6168956 44.9686973,74.7121002 C44.5704614,74.7640146 44.1751002,74.8362213 43.7738205,74.8766367 C42.665524,74.9833403 41.5428539,75.0469228 40.4086848,75.0469228 C39.2745157,75.0469228 38.1518455,74.9835094 37.0435491,74.8766367 C36.6424384,74.8362213 36.2470772,74.7640146 35.8486722,74.7121002 C35.147405,74.6168956 34.4490125,74.5245658 33.7649937,74.3918205 C33.2916764,74.2994906 32.829858,74.1753695 32.3624593,74.0656221 C31.7650209,73.9213779 31.1704572,73.7769645 30.5846868,73.6066785 C30.0912463,73.4595595 29.6033862,73.2863987 29.1156952,73.1189875 C28.5818392,72.9343278 28.0478142,72.7466242 27.5283319,72.5418413 C27.0088497,72.3368894 26.5182839,72.1118142 26.0217996,71.8838643 C25.5253152,71.6559144 25.0780397,71.4423382 24.6163904,71.205595 C24.0940334,70.9343549 23.5774259,70.648572 23.0694426,70.3397912 C22.6654572,70.1032171 22.2641775,69.8607244 21.871691,69.6096075 C21.3320856,69.2661608 20.8009353,68.9083403 20.2785783,68.5302276 C19.9466305,68.2936534 19.623476,68.048286 19.3001524,67.8000438 C18.7517537,67.3757662 18.2092735,66.9342401 17.6840418,66.4752965 C17.5570459,66.3800919 17.4415491,66.2588455 17.3175971,66.1490981 C17.4466221,56.3315261 23.7536305,47.662666 33.0551023,44.5183779 C37.7059228,46.7307432 43.1056973,46.7307432 47.7565177,44.5183779 C57.0578205,47.662666 63.3648288,56.331357 63.494023,66.1490981 C63.3727766,66.2588455 63.2572797,66.3685929 63.1333278,66.4752965 Z M30.3420251,23.1414802 C33.4668664,17.5841023 40.5050731,15.6122004 46.0624509,18.7370418 C51.6198288,21.8618831 53.5917307,28.9000898 50.4668894,34.4574676 C49.4301232,36.3013591 47.9065115,37.8249708 46.0624509,38.8619061 C46.0480772,38.8619061 46.0306597,38.8619061 46.0134113,38.8791545 C45.2480543,39.3051232 44.439238,39.6477244 43.6006597,39.9008706 C43.450666,39.9441608 43.3120021,40.0018246 43.1533841,40.0393653 C42.8647265,40.1144468 42.5616952,40.1663612 42.2644134,40.2182756 C41.7046848,40.3161858 41.1383612,40.3730042 40.5703466,40.3885616 L40.2412735,40.3885616 C39.6732589,40.3730042 39.1069353,40.3161858 38.5472067,40.2182756 C38.2585491,40.1663612 37.952643,40.1144468 37.658405,40.0393653 C37.5053674,40.0018246 37.3697474,39.9441608 37.2111294,39.9008706 C36.3725511,39.6477244 35.5637349,39.3052923 34.7983779,38.8791545 L34.7464635,38.8619061 C29.1890856,35.7370647 27.2171837,28.698858 30.3420251,23.1414802 Z M68.6137641,60.4263382 L68.6137641,60.4263382 C66.7617557,51.7880856 61.0734927,44.4647724 53.1620418,40.5331441 C59.6293591,33.4881733 59.1609457,22.5342338 52.1159749,16.0669165 C45.0710042,9.59959916 34.1170647,10.0680125 27.6497474,17.1129833 C21.5698434,23.7360438 21.5698434,33.9102526 27.6497474,40.5331441 C19.7382965,44.4649415 14.0500334,51.7880856 12.1980251,60.4263382 C1.13129436,44.8379812 4.79675574,23.2297516 20.3851127,12.1630209 C35.9734697,1.09629019 57.5816994,4.76175157 68.6484301,20.3501086 C72.8085157,26.2100104 75.0416806,33.2194697 75.0381337,40.4059791 C75.0381337,47.5862317 72.7917745,54.5865595 68.6137641,60.4263382 Z" id="Shape"></path>
        </g>
    </g>
</svg>