<?xml version="1.0" encoding="UTF-8"?>
<svg width="80px" height="80px" viewBox="0 0 80 80" version="1.1" xmlns="http://www.w3.org/2000/svg" xmlns:xlink="http://www.w3.org/1999/xlink">
    <title>win</title>
    <g id="win" stroke="none" stroke-width="1" fill="none" fill-rule="evenodd">
        <g id="master-yoda" transform="translate(0.000000, 13.750000)">
            <path d="M69.7107748,26.3339063 C68.9110873,27.514375 65.6935873,31.125625 60.8568686,33.4529688 C62.1971811,28.2573438 62.1879623,24.1415625 61.8406186,21.32125 C62.6920248,21.6621875 63.6262436,21.8054688 64.5760873,21.7064063 C64.6693686,21.6967188 64.7637436,21.6853125 64.8596811,21.671875 L64.9560873,21.6582813 L65.0492123,21.63 C66.6329623,21.1489063 71.1440561,19.8835938 72.9740561,19.8057813 C73.3859311,19.7882813 73.8113998,19.9165625 74.2285873,20.135 C71.2838998,20.6275 66.7887436,21.8889063 63.7451498,25.1145313 C63.2713998,25.6167188 63.2945248,26.4078125 63.7965561,26.8815625 C64.0381186,27.1095313 64.3463998,27.2225 64.6542123,27.2225 C64.9862436,27.2225 65.3176498,27.0909375 65.5635873,26.8303125 C68.9421811,23.2495313 74.7849936,22.5051563 76.6546811,22.3560938 C76.7898373,22.5334375 76.9110873,22.7035938 77.0149936,22.859375 C77.1148373,23.0092188 77.1976498,23.1553125 77.2643686,23.2896875 C75.2679623,23.4565625 71.3234311,23.953125 69.7107748,26.3339063 L69.7107748,26.3339063 Z" id="Path-Copy-4" fill="#C9CBCF"></path>
            <path d="M56.6529623,21.9471875 C56.0293686,20.7404688 54.1204623,17.9339063 49.8729623,17.9339063 C47.1357748,17.9339063 45.4199936,18.9715625 44.3767123,20.03875 C44.0490561,19.6235938 43.7120248,19.2342188 43.3834311,18.8801563 C43.8035873,18.6879688 44.1718686,18.46125 44.4193686,18.1214063 C45.7149936,16.3435938 48.6959311,14.9867188 49.5096811,14.9867188 L49.5921811,14.9867188 C50.4367123,14.983125 52.1937436,14.9814063 54.7682748,16.6073438 C57.0826498,18.0690625 58.8651498,20.6403125 59.3174936,21.3295313 C59.3246811,21.3823438 59.3320248,21.4348438 59.3388998,21.48875 L56.6529623,21.9471875 Z" id="Path-Copy-3" fill="#C9CBCF"></path>
            <path d="M20.6595248,21.4898438 C20.6676498,21.4265625 20.6759311,21.3645313 20.6843686,21.3028125 C21.1613998,20.5775 22.9192123,18.0584375 25.2167123,16.6073438 C27.7910873,14.9815625 29.5478061,14.9857813 30.3928061,14.9866677 L30.4753061,14.9866677 C31.2888998,14.9866677 34.2698373,16.3435938 35.5654623,18.1214063 C35.8131186,18.46125 36.1812436,18.6879688 36.6015561,18.8801563 C36.2729623,19.2342188 35.9359311,19.6235938 35.6082748,20.03875 C34.5649936,18.9715625 32.8492123,17.9339063 30.1120248,17.9339063 C25.8643686,17.9339063 23.9554623,20.7404688 23.3342123,21.9435938 L20.6595248,21.4898438 Z" id="Path-Copy-2" fill="#C9CBCF"></path>
            <path d="M10.2742123,26.3339062 C9.4845248,25.1682812 8.04811855,24.3164062 6.0051498,23.8021875 C4.77374355,23.4921875 3.5623373,23.3604687 2.7204623,23.2896875 C2.78718105,23.1554688 2.86999355,23.0092188 2.96999355,22.859375 C3.07405605,22.7032812 3.1954623,22.5326562 3.33061855,22.355 C5.19718105,22.500625 11.0299936,23.2359375 14.4212436,26.8303125 C14.6671811,27.0909375 14.9985873,27.2225 15.3307748,27.2225 C15.6385873,27.2225 15.9468686,27.109375 16.1884311,26.8815625 C16.6904623,26.4078125 16.7134311,25.6167187 16.2396811,25.1145312 C13.1951498,21.8878125 8.6979623,20.6267187 5.7532748,20.1345313 C6.1707748,19.9160937 6.5970248,19.7878125 7.01093105,19.8057812 C8.8392123,19.8835937 13.3513998,21.1489062 14.9356186,21.63 L15.0288998,21.6582812 L15.1253061,21.671875 C15.2210873,21.6853125 15.3154623,21.6967187 15.4081186,21.70625 C16.3582748,21.8048437 17.2928061,21.6614062 18.1445248,21.3204687 C17.7970248,24.1407812 17.7874936,28.2567188 19.1279623,33.4529688 C14.2912436,31.1257812 11.0738998,27.514375 10.2742123,26.3339062 L10.2742123,26.3339062 Z" id="Path-Copy" fill="#C9CBCF"></path>
            <path d="M69.7107748,26.3339063 C68.9110873,27.514375 65.6935873,31.125625 60.8568686,33.4529688 C62.1971811,28.2573438 62.1879623,24.1415625 61.8406186,21.32125 C62.6920248,21.6621875 63.6262436,21.8054688 64.5760873,21.7064063 C64.6693686,21.6967188 64.7637436,21.6853125 64.8596811,21.671875 L64.9560873,21.6582813 L65.0492123,21.63 C66.6329623,21.1489063 71.1440561,19.8835938 72.9740561,19.8057813 C73.3859311,19.7882813 73.8113998,19.9165625 74.2285873,20.135 C71.2838998,20.6275 66.7887436,21.8889063 63.7451498,25.1145313 C63.2713998,25.6167188 63.2945248,26.4078125 63.7965561,26.8815625 C64.0381186,27.1095313 64.3463998,27.2225 64.6542123,27.2225 C64.9862436,27.2225 65.3176498,27.0909375 65.5635873,26.8303125 C68.9421811,23.2495313 74.7849936,22.5051563 76.6546811,22.3560938 C76.7898373,22.5334375 76.9110873,22.7035938 77.0149936,22.859375 C77.1148373,23.0092188 77.1976498,23.1553125 77.2643686,23.2896875 C75.2679623,23.4565625 71.3234311,23.953125 69.7107748,26.3339063 L69.7107748,26.3339063 Z M56.6529623,21.9471875 C56.0293686,20.7404688 54.1204623,17.9339063 49.8729623,17.9339063 C47.1357748,17.9339063 45.4199936,18.9715625 44.3767123,20.03875 C44.0490561,19.6235938 43.7120248,19.2342188 43.3834311,18.8801563 C43.8035873,18.6879688 44.1718686,18.46125 44.4193686,18.1214063 C45.7149936,16.3435938 48.6959311,14.9867188 49.5096811,14.9867188 L49.5921811,14.9867188 C50.4367123,14.983125 52.1937436,14.9814063 54.7682748,16.6073438 C57.0826498,18.0690625 58.8651498,20.6403125 59.3174936,21.3295313 C59.3246811,21.3823438 59.3320248,21.4348438 59.3388998,21.48875 L56.6529623,21.9471875 Z M49.8859311,25.2271875 C48.4485873,25.2271875 45.8948373,23.4801563 45.6606186,22.4001563 C45.6845248,22.35375 45.7084311,22.3176563 45.7274936,22.2923438 L45.8263998,22.174375 C46.7067123,21.0195313 48.0681186,20.4339063 49.8729623,20.4339063 C52.2665561,20.4339063 53.5565561,21.6309375 54.2428061,22.7609375 C53.8668686,23.7623438 51.3684311,25.2271875 49.8859311,25.2271875 L49.8859311,25.2271875 Z M41.0945248,24.6589062 C40.4048373,24.31875 39.5812436,24.31875 38.8915561,24.6589062 C38.3446811,24.9285937 37.4926498,25.1610937 36.3971811,24.8871875 C36.8565561,24.0014062 36.9754623,23.1914062 36.9082748,22.5026562 C37.6957748,21.2996875 38.7148373,20.2470312 39.4687436,19.5473437 C39.8248373,19.2284375 39.9909311,18.7673438 39.9137436,18.3064063 C39.7696811,17.4471875 39.0053061,17.1489063 38.1957748,16.8332812 C37.9884311,16.7523438 37.6578061,16.6234375 37.5045248,16.5398437 C35.8342123,14.3453125 32.2807748,12.4867187 30.4753061,12.4867187 L30.3976498,12.4867187 C29.4031186,12.4848437 27.0701498,12.48 23.8817123,14.49375 C23.3784311,14.8115625 22.9003061,15.1682812 22.4510873,15.5435938 C23.1209311,13.9660938 23.9431186,12.18875 24.8632748,10.5326563 C25.4503061,9.4759375 26.1985873,8.3484375 27.0873373,7.18140625 C28.5642123,5.2421875 30.6913998,3.9040625 33.0771811,3.4134375 C33.1813998,3.391875 33.3065561,3.36515625 33.4504623,3.33453125 C34.7182748,3.06359375 37.3565561,2.5 39.9924936,2.5 C42.6285873,2.5 45.2667123,3.06359375 46.5345248,3.33453125 C46.6784311,3.36515625 46.8035873,3.391875 46.9076498,3.4134375 C49.2934311,3.9040625 51.4206186,5.2421875 52.8974936,7.18140625 C53.7862436,8.3484375 54.5346811,9.4759375 55.1217123,10.5326563 C56.0417123,12.18875 56.8638998,13.9660938 57.5338998,15.5435938 C57.0846811,15.1682812 56.6063998,14.8115625 56.1032748,14.49375 C52.9146811,12.4798438 50.5834311,12.484375 49.5871811,12.4867187 L49.5096811,12.4867187 C47.7040561,12.4867187 44.1507748,14.3453125 42.4804623,16.5398437 C42.3270248,16.6235937 41.9963998,16.7523438 41.7890561,16.8332812 C40.9796811,17.1489063 40.2151498,17.4471875 40.0712436,18.3064063 C39.9938998,18.7673438 40.1599936,19.2284375 40.5162436,19.5473437 C41.2699936,20.2470312 42.2892123,21.2996875 43.0767123,22.5026562 C43.0093686,23.1909375 43.1281186,24.0003125 43.5867123,24.8853125 C42.4899936,25.16 41.6404623,24.9282812 41.0945248,24.6589062 L41.0945248,24.6589062 Z M25.7418686,22.7614063 C26.4279623,21.63125 27.7179623,20.4339063 30.1120248,20.4339063 C31.9168686,20.4339063 33.2782748,21.0195313 34.1585873,22.174375 L34.2092123,22.2409375 L34.2681186,22.3 C34.2695248,22.3014063 34.2953061,22.3325 34.3254623,22.3923438 C34.1018686,23.471875 31.5392123,25.2271875 30.0984311,25.2271875 C28.6160873,25.2271875 26.1182748,23.7626563 25.7418686,22.7614063 L25.7418686,22.7614063 Z M20.6595248,21.4898437 C20.6676498,21.4265625 20.6759311,21.3645312 20.6843686,21.3028125 C21.1613998,20.5775 22.9192123,18.0584375 25.2167123,16.6073438 C27.7910873,14.9815625 29.5478061,14.9857813 30.3928061,14.9866677 L30.4753061,14.9866677 C31.2888998,14.9866677 34.2698373,16.3435938 35.5654623,18.1214063 C35.8131186,18.46125 36.1812436,18.6879688 36.6015561,18.8801563 C36.2729623,19.2342188 35.9359311,19.6235938 35.6082748,20.03875 C34.5649936,18.9715625 32.8492123,17.9339063 30.1120248,17.9339063 C25.8643686,17.9339063 23.9554623,20.7404688 23.3342123,21.9435937 L20.6595248,21.4898437 Z M10.2742123,26.3339063 C9.4845248,25.1682812 8.04811855,24.3164062 6.0051498,23.8021875 C4.77374355,23.4921875 3.5623373,23.3604688 2.7204623,23.2896875 C2.78718105,23.1554688 2.86999355,23.0092188 2.96999355,22.859375 C3.07405605,22.7032813 3.1954623,22.5326563 3.33061855,22.355 C5.19718105,22.500625 11.0299936,23.2359375 14.4212436,26.8303125 C14.6671811,27.0909375 14.9985873,27.2225 15.3307748,27.2225 C15.6385873,27.2225 15.9468686,27.109375 16.1884311,26.8815625 C16.6904623,26.4078125 16.7134311,25.6167188 16.2396811,25.1145313 C13.1951498,21.8878125 8.6979623,20.6267188 5.7532748,20.1345313 C6.1707748,19.9160938 6.5970248,19.7878125 7.01093105,19.8057813 C8.8392123,19.8835938 13.3513998,21.1489063 14.9356186,21.63 L15.0288998,21.6582813 L15.1253061,21.671875 C15.2210873,21.6853125 15.3154623,21.6967188 15.4081186,21.70625 C16.3582748,21.8048438 17.2928061,21.6614063 18.1445248,21.3204687 C17.7970248,24.1407812 17.7874936,28.2567188 19.1279623,33.4529687 C14.2912436,31.1257812 11.0738998,27.514375 10.2742123,26.3339063 L10.2742123,26.3339063 Z M79.0951498,21.4726563 C78.8192123,21.05875 78.0607748,19.9932813 76.9815561,19.0421875 C75.6098373,17.83375 74.2274936,17.2501563 72.8678061,17.3079688 C70.4974936,17.40875 65.2373373,18.9632813 64.4218686,19.2079688 C64.3873373,19.2121875 64.3529623,19.2160937 64.3187436,19.2196875 C62.8348373,19.3739063 61.4104623,18.485625 60.8432748,17.0571875 C60.8337436,17.0335938 60.8259311,17.0151563 60.8196811,17.0001563 C60.0398373,14.9746875 58.7999936,12.0059375 57.3070248,9.31859375 C56.6620248,8.15734375 55.8476498,6.92875 54.8863998,5.6665625 C53.0435873,3.246875 50.3887436,1.57703125 47.4113998,0.9646875 C47.3124936,0.94421875 47.1937436,0.91890625 47.0568686,0.8896875 C45.7051498,0.6009375 42.8926498,0 39.9924936,0 C37.0924936,0 34.2798373,0.6009375 32.9281186,0.8896875 C32.7913998,0.91890625 32.6724936,0.94421875 32.5735873,0.9646875 C29.5960873,1.57703125 26.9413998,3.246875 25.0984311,5.6665625 C24.1373373,6.92875 23.3229623,8.15734375 22.6778061,9.31859375 C21.1845248,12.0065625 19.9445248,14.9759375 19.1646811,17.0014063 C19.1585873,17.0157813 19.1513998,17.033125 19.1424936,17.055 C18.5759311,18.4846875 17.1507748,19.3732813 15.6654623,19.2196875 C15.6315561,19.2160937 15.5974936,19.2121875 15.5631186,19.2079688 C14.7474936,18.9632813 9.4873373,17.40875 7.11718105,17.3079688 C3.9998373,17.1789063 1.56343105,20.4621875 0.889681052,21.4726563 C0.582962302,21.9329688 -0.376725198,23.5282813 0.160149802,24.7292187 C0.396243552,25.2571875 0.865618552,25.6076562 1.44811855,25.6909375 C1.5801498,25.7098438 1.7495248,25.7223438 2.00593105,25.7415625 C5.39343105,25.9940625 7.4788998,26.6651563 8.20436855,27.7360937 C9.2588998,29.2926563 13.3535873,33.8790625 19.5543686,36.3742187 C19.8592123,36.496875 20.1049936,36.7482812 20.2288998,37.0642188 C20.9856186,38.994375 22.5454623,42.55 24.4885873,44.6753125 L24.7426498,44.95375 C27.3670248,47.8359375 31.3328061,52.19125 39.9918686,52.19125 L39.9918686,49.69125 C32.4376498,49.69125 29.0584311,45.9803125 26.5910873,43.270625 L26.3337436,42.9882812 C24.6113998,41.1046875 23.1337436,37.620625 22.5674936,36.1795312 C20.8178061,31.1754688 20.3967123,27.0476562 20.4728061,23.9939063 L22.9162436,24.4084375 C23.2193686,24.4596875 23.5207748,24.4529687 23.8090561,24.3976563 C24.2601498,25.0765625 24.9490561,25.7225 25.8554623,26.2984375 C27.2424936,27.1798437 28.8682748,27.7271875 30.0984311,27.7271875 C30.3479623,27.7271875 30.6138998,27.7007812 30.8899936,27.6517187 C29.7329623,29.044375 28.4551498,30.6954687 27.6099936,32.1229687 C25.7710873,35.2289062 24.4003061,38.741875 24.3429623,38.8898437 C24.0931186,39.5334375 24.4123373,40.2575 25.0557748,40.5073438 C25.2045248,40.5651562 25.3574936,40.5923437 25.5079623,40.5923437 C26.0085873,40.5923437 26.4812436,40.289375 26.6734311,39.7945312 C26.6867123,39.7603125 28.0298373,36.3209375 29.7612436,33.3965625 C31.0649936,31.1945313 33.6198373,28.2690625 34.7890561,26.9721875 C34.8496811,27.00125 34.9106186,27.0298437 34.9737436,27.05375 C37.2892123,27.934375 39.1149936,27.3360937 39.9885873,26.9009375 C40.5385873,27.1723437 41.4553061,27.5071875 42.6292123,27.5071875 C43.3376498,27.5071875 44.1398373,27.3853125 45.0112436,27.05375 C45.0745248,27.0296875 45.1353061,27.0010937 45.1959311,26.9720313 C46.3648373,28.2682812 48.9184311,31.1920313 50.2237436,33.3965625 C51.9551498,36.3209375 53.2981186,39.7603125 53.3113998,39.7945312 C53.5035873,40.289375 53.9762436,40.5923437 54.4770248,40.5923437 C54.6274936,40.5923437 54.7804623,40.565 54.9290561,40.5073438 C55.5726498,40.2575 55.8918686,39.5334375 55.6420248,38.8898437 C55.5845248,38.741875 54.2138998,35.2289062 52.3748373,32.1229687 C51.5296811,30.6954687 50.2520248,29.044375 49.0949936,27.651875 C49.3709311,27.7007812 49.6367123,27.7271875 49.8859311,27.7271875 C51.1162436,27.7271875 52.7420248,27.1798437 54.1288998,26.2984375 C55.0353061,25.7225 55.7242123,25.0767188 56.1751498,24.3978125 C56.4637436,24.453125 56.7653061,24.46 57.0687436,24.4082812 L59.5260873,23.9914063 C59.6006186,27.0345313 59.1742123,31.1554688 57.4171811,36.1804687 C56.8504623,37.6221875 55.3731186,41.1051562 53.6512436,42.9884375 L53.3938998,43.270625 C50.9265561,45.9803125 47.5473373,49.69125 39.9929623,49.69125 L39.9929623,52.19125 C48.6520248,52.19125 52.6179623,47.8359375 55.2423373,44.95375 L55.4962436,44.6753125 C57.4393686,42.55 58.9992123,38.994375 59.7560873,37.0640625 C59.8798373,36.7482812 60.1256186,36.496875 60.4304623,36.3742187 C66.6312436,33.8790625 70.7260873,29.2926563 71.7806186,27.7360937 C72.5060873,26.6651563 74.5913998,25.9940625 77.9788998,25.7415625 C78.2353061,25.7223438 78.4046811,25.7098438 78.5368686,25.6909375 C79.1192123,25.6076562 79.5885873,25.2571875 79.8246811,24.7292187 C80.3617123,23.5282813 79.4020248,21.9329688 79.0951498,21.4726563 L79.0951498,21.4726563 Z" id="Fill-1" fill="#555E6B"></path>
            <path d="M40.0131342,37.0046875 C42.0451654,37.0010937 43.3215717,36.6559375 44.4476654,36.3507812 C45.3003217,36.1198438 45.9737592,35.9375 46.8623529,35.9375 C47.3201654,35.9375 47.7573529,36.15625 48.0315717,36.5229687 L48.9873529,37.8001562 C49.2328217,38.1282812 49.6086029,38.3014062 49.9892279,38.3014062 C50.2496967,38.3014062 50.5125092,38.2201562 50.7370404,38.0521875 C51.2898529,37.6385937 51.4026654,36.8551563 50.9890717,36.3023437 L50.0331342,35.0251562 C49.2893842,34.0309375 48.1040717,33.4375 46.8623529,33.4375 C45.6412592,33.4375 44.7021967,33.691875 43.7940717,33.9378125 C42.7670404,34.2159375 41.7048529,34.5034375 39.9940717,34.5048437 C38.2834467,34.5034375 37.2212592,34.2159375 36.1942279,33.9378125 C35.2861029,33.691875 34.3470404,33.4375 33.1259467,33.4375 C31.8842279,33.4375 30.6989154,34.0309375 29.9550092,35.0251562 L28.9992279,36.3023437 C28.5856342,36.8551563 28.6984467,37.6385937 29.2512592,38.0521875 C29.4759467,38.2203125 29.7386029,38.3014062 29.9990717,38.3014062 C30.3795404,38.3014062 30.7553217,38.1282812 31.0009467,37.8001562 L31.9567279,36.5228125 C32.2309467,36.15625 32.6681342,35.9375 33.1259467,35.9375 C34.0145404,35.9375 34.6879779,36.1198438 35.5406342,36.3507812 C36.6667279,36.6559375 37.9431342,37.0010937 39.9751654,37.0046875 C39.9773529,37.0046875 39.9795404,37.005 39.9817279,37.005 C39.9859467,37.005 39.9898529,37.0048437 39.9940717,37.0048437 C39.9984467,37.0048437 40.0023529,37.005 40.0065717,37.005 C40.0087592,37.005 40.0109467,37.0046875 40.0131342,37.0046875" id="Fill-4" fill="#555E6B"></path>
            <path d="M50,20.9375 C49.1370312,20.9375 48.4375,21.6371875 48.4375,22.5 C48.4375,23.3629688 49.1370312,24.0625 50,24.0625 C50.8629688,24.0625 51.5625,23.3629688 51.5625,22.5 C51.5625,21.6371875 50.8629688,20.9375 50,20.9375" id="Fill-6" fill="#555E6B"></path>
            <path d="M30,20.9375 C29.1370312,20.9375 28.4375,21.6371875 28.4375,22.5 C28.4375,23.3629688 29.1370312,24.0625 30,24.0625 C30.8629688,24.0625 31.5625,23.3629688 31.5625,22.5 C31.5625,21.6371875 30.8629688,20.9375 30,20.9375" id="Fill-8" fill="#555E6B"></path>
        </g>
    </g>
</svg>